<svg xmlns="http://www.w3.org/2000/svg" width="11" height="17" viewBox="0 0 11 17">
  <metadata><?xpacket begin="﻿" id="W5M0MpCehiHzreSzNTczkc9d"?>
<x:xmpmeta xmlns:x="adobe:ns:meta/" x:xmptk="Adobe XMP Core 5.6-c138 79.159824, 2016/09/14-01:09:01        ">
   <rdf:RDF xmlns:rdf="http://www.w3.org/1999/02/22-rdf-syntax-ns#">
      <rdf:Description rdf:about=""/>
   </rdf:RDF>
</x:xmpmeta>
                                                                                                    
                                                                                                    
                                                                                                    
                                                                                                    
                                                                                                    
                                                                                                    
                                                                                                    
                                                                                                    
                                                                                                    
                                                                                                    
                                                                                                    
                                                                                                    
                                                                                                    
                                                                                                    
                                                                                                    
                                                                                                    
                                                                                                    
                                                                                                    
                                                                                                    
                                                                                                    
                           
<?xpacket end="w"?></metadata>
<defs>
    <style>
      .cls-1 {
        fill: #b3b3b3;
        fill-rule: evenodd;
      }
    </style>
  </defs>
  <path id="Forma_1" data-name="Forma 1" class="cls-1" d="M1010.74,3056.23a5.03,5.03,0,0,0-.26-0.68,5.356,5.356,0,0,0-5.05-3.55,5.5,5.5,0,0,0-5.43,5.27V3058c0,0.03.01,0.3,0.02,0.44,0.2,1.69,1.46,3.49,2.39,5.18,1.01,1.81,2.06,3.6,3.09,5.38,0.64-1.16,1.28-2.34,1.9-3.48,0.17-.33.37-0.66,0.54-0.98,0.11-.21.33-0.42,0.43-0.62,1.01-1.96,2.63-3.94,2.63-5.89v-0.8A7.048,7.048,0,0,0,1010.74,3056.23Zm-5.27,3.64a1.948,1.948,0,0,1-1.87-1.42,1.925,1.925,0,0,1-.05-0.53v-0.47a1.9,1.9,0,0,1,1.98-1.93,2.077,2.077,0,0,1,2.01,2.18A2.117,2.117,0,0,1,1005.47,3059.87Z" transform="translate(-1000 -3052)"/>
</svg>
