<svg xmlns="http://www.w3.org/2000/svg" width="60" height="64" viewBox="0 0 60 64">
  <metadata><?xpacket begin="﻿" id="W5M0MpCehiHzreSzNTczkc9d"?>
<x:xmpmeta xmlns:x="adobe:ns:meta/" x:xmptk="Adobe XMP Core 5.6-c138 79.159824, 2016/09/14-01:09:01        ">
   <rdf:RDF xmlns:rdf="http://www.w3.org/1999/02/22-rdf-syntax-ns#">
      <rdf:Description rdf:about=""/>
   </rdf:RDF>
</x:xmpmeta>
                                                                                                    
                                                                                                    
                                                                                                    
                                                                                                    
                                                                                                    
                                                                                                    
                                                                                                    
                                                                                                    
                                                                                                    
                                                                                                    
                                                                                                    
                                                                                                    
                                                                                                    
                                                                                                    
                                                                                                    
                                                                                                    
                                                                                                    
                                                                                                    
                                                                                                    
                                                                                                    
                           
<?xpacket end="w"?></metadata>
<defs>
    <style>
      .cls-1 {
        fill-rule: evenodd;
      }
    </style>
  </defs>
  <path class="cls-1" d="M1133.66,378.32l-16.22-16.943a1.226,1.226,0,0,0-.89-0.377h-24.17a4.924,4.924,0,0,0-4.91,4.93v17.224h-9.8a3.686,3.686,0,0,0-3.67,3.689v18.468a3.686,3.686,0,0,0,3.67,3.689h9.8v11.078a4.92,4.92,0,0,0,4.91,4.922h36.71a4.919,4.919,0,0,0,4.91-4.919V379.173A1.229,1.229,0,0,0,1133.66,378.32Zm-16.8-14,13.31,13.908h-13.31V364.323Zm-39.19,42.215a1.226,1.226,0,0,1-1.22-1.227V386.843a1.227,1.227,0,0,1,1.22-1.228h33.07a1.227,1.227,0,0,1,1.22,1.228v18.468a1.226,1.226,0,0,1-1.22,1.227h-33.07Zm53.88,13.543a2.459,2.459,0,0,1-2.46,2.457h-36.71a2.46,2.46,0,0,1-2.46-2.46V409h20.82a3.686,3.686,0,0,0,3.67-3.689V386.843a3.686,3.686,0,0,0-3.67-3.689h-20.82V365.93a2.465,2.465,0,0,1,2.46-2.469h22.03v16a1.228,1.228,0,0,0,1.22,1.231h15.92v39.389h0Zm-42.91-27.844a2.751,2.751,0,0,0-1.52-1.035,12.2,12.2,0,0,0-2.52-.159h-3.41v10.572h2.13v-3.988h1.38a11.992,11.992,0,0,0,2.2-.151,3.015,3.015,0,0,0,1.1-.5,2.886,2.886,0,0,0,.9-1.042,3.52,3.52,0,0,0,.35-1.637A3.271,3.271,0,0,0,1088.64,392.237Zm-1.82,2.91a1.4,1.4,0,0,1-.66.519,5.558,5.558,0,0,1-1.68.166h-1.16v-3h1.02a10.126,10.126,0,0,1,1.53.072,1.453,1.453,0,0,1,.85.469,1.347,1.347,0,0,1,.34.951A1.431,1.431,0,0,1,1086.82,395.147Zm12.64-1.216a4.638,4.638,0,0,0-1.01-1.712,3.479,3.479,0,0,0-1.58-.974,7.542,7.542,0,0,0-2-.2h-3.89v10.572h4a6.38,6.38,0,0,0,1.88-.223,3.636,3.636,0,0,0,1.49-.844,4.616,4.616,0,0,0,1.13-1.868,6.858,6.858,0,0,0,.32-2.25A7.843,7.843,0,0,0,1099.46,393.931Zm-2.07,4.342a2.272,2.272,0,0,1-.55,1.02,2,2,0,0,1-.86.44,5.775,5.775,0,0,1-1.29.1h-1.58v-7h0.95a9.6,9.6,0,0,1,1.75.1,2.042,2.042,0,0,1,.98.5,2.374,2.374,0,0,1,.6,1.024,6.117,6.117,0,0,1,.22,1.883A6.671,6.671,0,0,1,1097.39,398.273Zm11.44-5.441v-1.789h-7.21v10.572h2.12v-4.492h4.39v-1.789h-4.39v-2.5h5.09Z" transform="translate(-1074 -361)"/>
</svg>
