<svg xmlns="http://www.w3.org/2000/svg" width="14.06" height="15.81" viewBox="0 0 14.06 15.81">
  <metadata><?xpacket begin="﻿" id="W5M0MpCehiHzreSzNTczkc9d"?>
<x:xmpmeta xmlns:x="adobe:ns:meta/" x:xmptk="Adobe XMP Core 5.6-c138 79.159824, 2016/09/14-01:09:01        ">
   <rdf:RDF xmlns:rdf="http://www.w3.org/1999/02/22-rdf-syntax-ns#">
      <rdf:Description rdf:about=""/>
   </rdf:RDF>
</x:xmpmeta>
                                                                                                    
                                                                                                    
                                                                                                    
                                                                                                    
                                                                                                    
                                                                                                    
                                                                                                    
                                                                                                    
                                                                                                    
                                                                                                    
                                                                                                    
                                                                                                    
                                                                                                    
                                                                                                    
                                                                                                    
                                                                                                    
                                                                                                    
                                                                                                    
                                                                                                    
                                                                                                    
                           
<?xpacket end="w"?></metadata>
<defs>
    <style>
      .cls-1 {
        fill: #b3b3b3;
        fill-rule: evenodd;
      }
    </style>
  </defs>
  <path id="Forma_1" data-name="Forma 1" class="cls-1" d="M1387.82,3066.55a0.735,0.735,0,0,1-.29.61l-2.32,1.87a1.108,1.108,0,0,1-.4.23,1.588,1.588,0,0,1-.46.1h-0.1c-0.05-.01-0.12-0.01-0.2-0.02a8.345,8.345,0,0,1-.97-0.2,7.515,7.515,0,0,1-1.59-.68,13.126,13.126,0,0,1-2.07-1.44,15.877,15.877,0,0,1-2.39-2.48,17.837,17.837,0,0,1-1.62-2.28,16.224,16.224,0,0,1-.98-1.96,10.938,10.938,0,0,1-.5-1.6,8.574,8.574,0,0,1-.18-1.22,3.8,3.8,0,0,1,.02-0.79c0.03-.19.05-0.29,0.05-0.31a1.675,1.675,0,0,1,.19-0.44,1.137,1.137,0,0,1,.31-0.34l2.31-1.89a0.766,0.766,0,0,1,.53-0.17,0.6,0.6,0,0,1,.35.16,1.076,1.076,0,0,1,.24.32l1.36,3.39a0.768,0.768,0,0,1,.02.56,0.968,0.968,0,0,1-.32.47l-0.86.7a0.289,0.289,0,0,0-.06.1,0.76,0.76,0,0,0-.04.11,2.826,2.826,0,0,0,.21.79,6.827,6.827,0,0,0,.49.99,9.792,9.792,0,0,0,.99,1.37,10.819,10.819,0,0,0,1.14,1.26,7.137,7.137,0,0,0,.86.69,2.721,2.721,0,0,0,.55.29l0.19,0.06a0.892,0.892,0,0,0,.11-0.02,0.282,0.282,0,0,0,.11-0.04l0.99-.82a1.011,1.011,0,0,1,.69-0.19,0.9,0.9,0,0,1,.42.14h0.01l2.86,2.12A0.807,0.807,0,0,1,1387.82,3066.55Z" transform="translate(-1373.75 -3053.53)"/>
</svg>
