<?xml version="1.0" encoding="UTF-8" standalone="no"?>
<svg
   xmlns:dc="http://purl.org/dc/elements/1.1/"
   xmlns:cc="http://creativecommons.org/ns#"
   xmlns:rdf="http://www.w3.org/1999/02/22-rdf-syntax-ns#"
   xmlns:svg="http://www.w3.org/2000/svg"
   xmlns="http://www.w3.org/2000/svg"
   viewBox="0 0 113.38575 35.4375"
   height="35.4375"
   width="113.38575"
   xml:space="preserve"
   version="1.1"
   id="svg2"><metadata
     id="metadata8"><rdf:RDF><cc:Work
         rdf:about=""><dc:format>image/svg+xml</dc:format><dc:type
           rdf:resource="http://purl.org/dc/dcmitype/StillImage" /></cc:Work></rdf:RDF></metadata><defs
     id="defs6"><clipPath
       id="clipPath16"
       clipPathUnits="userSpaceOnUse"><path
         id="path18"
         d="m 0,28.35 90.709,0 L 90.709,0 0,0 0,28.35 Z" /></clipPath></defs><g
     transform="matrix(1.25,0,0,-1.25,0,35.4375)"
     id="g10"><g
       id="g12"><g
         clip-path="url(#clipPath16)"
         id="g14"><g
           transform="translate(15.4457,27.4667)"
           id="g20"><path
             id="path22"
             style="fill:#e30313;fill-opacity:1;fill-rule:evenodd;stroke:none"
             d="m 0,0 c -8.759,0 -12.611,-6.131 -12.611,-13.669 0,-6.152 2.915,-11.2 9.413,-12.907 l -0.011,0.086 c -2.605,2.832 -1.359,22.884 -1.359,22.884 0,0 11.101,1.359 11.894,-6.231 0.718,-6.876 -5.588,-9.723 -8.61,-7.382 0,0 2.206,-7.761 8.994,-9.364 5.582,2.114 9.585,7.48 9.585,13.064 C 17.295,-5.979 8.759,0 0,0" /></g><g
           transform="translate(39.3514,17.5434)"
           id="g24"><path
             id="path26"
             style="fill:#000000;fill-opacity:1;fill-rule:evenodd;stroke:none"
             d="M 0,0 0,0 C 0,0.278 -0.068,0.535 -0.204,0.77 -0.34,1.005 -0.526,1.192 -0.762,1.33 -0.997,1.468 -1.253,1.537 -1.528,1.537 -1.81,1.537 -2.069,1.472 -2.308,1.342 -2.546,1.212 -2.735,1.033 -2.875,0.804 -3.016,0.575 -3.086,0.321 -3.086,0.043 c 0,-0.451 0.137,-0.814 0.412,-1.088 0.303,-0.317 0.673,-0.476 1.11,-0.476 0.284,0 0.546,0.066 0.787,0.198 0.24,0.132 0.429,0.314 0.569,0.546 C -0.069,-0.545 0,-0.286 0,0 m -3.079,1.957 0,-0.671 c 0.097,0.16 0.229,0.297 0.4,0.412 0.17,0.114 0.356,0.2 0.558,0.258 0.202,0.057 0.4,0.086 0.593,0.086 0.593,0 1.123,-0.252 1.592,-0.756 C 0.145,1.212 0.221,1.109 0.292,0.978 0.362,0.846 0.419,0.695 0.461,0.525 0.504,0.356 0.526,0.178 0.526,-0.007 c 0,-0.376 -0.096,-0.719 -0.287,-1.028 -0.191,-0.309 -0.448,-0.551 -0.773,-0.728 -0.325,-0.175 -0.673,-0.263 -1.045,-0.263 -0.304,0 -0.595,0.071 -0.872,0.214 -0.277,0.144 -0.477,0.344 -0.6,0.604 l 0,-2.091 -0.526,0 0,5.256 0.498,0 z" /></g><g
           transform="translate(45.1781,17.8422)"
           id="g28"><path
             id="path30"
             style="fill:#000000;fill-opacity:1;fill-rule:evenodd;stroke:none"
             d="M 0,0 0,0 C -0.045,0.229 -0.141,0.437 -0.285,0.625 -0.43,0.813 -0.607,0.963 -0.819,1.073 -1.03,1.183 -1.252,1.238 -1.488,1.238 -1.728,1.238 -1.955,1.185 -2.171,1.079 -2.387,0.973 -2.568,0.825 -2.713,0.636 -2.858,0.447 -2.952,0.235 -2.995,0 L 0,0 Z m -2.995,-0.476 c 0.011,-0.238 0.086,-0.461 0.227,-0.668 0.142,-0.206 0.324,-0.371 0.547,-0.493 0.224,-0.122 0.454,-0.183 0.691,-0.183 0.195,0 0.384,0.035 0.569,0.103 0.185,0.07 0.35,0.168 0.495,0.298 0.145,0.13 0.256,0.28 0.331,0.451 l 0.547,0 c -0.091,-0.258 -0.233,-0.49 -0.426,-0.697 -0.194,-0.206 -0.418,-0.368 -0.675,-0.485 -0.257,-0.117 -0.52,-0.175 -0.79,-0.175 -0.373,0 -0.716,0.09 -1.029,0.271 -0.313,0.18 -0.56,0.426 -0.741,0.737 -0.182,0.311 -0.272,0.652 -0.272,1.025 0,0.369 0.09,0.71 0.271,1.023 0.18,0.314 0.425,0.561 0.736,0.741 0.31,0.18 0.65,0.271 1.019,0.271 0.304,0 0.593,-0.067 0.865,-0.199 C -0.358,1.411 -0.124,1.226 0.071,0.987 0.238,0.78 0.354,0.562 0.417,0.332 0.482,0.103 0.518,-0.167 0.526,-0.476 l -3.521,0 z" /></g><g
           transform="translate(48.1634,19.5854)"
           id="g32"><path
             id="path34"
             style="fill:#000000;fill-opacity:1;fill-rule:evenodd;stroke:none"
             d="m 0,0 0.526,0 0,-2.327 L 2.311,0 2.986,0 1.479,-1.95 l 1.608,-1.942 -0.675,0 -1.266,1.537 -0.62,-0.797 0,-0.74 L 0,-3.892 0,0 Z" /></g><g
           transform="translate(56.3236,19.5854)"
           id="g36"><path
             id="path38"
             style="fill:#000000;fill-opacity:1;fill-rule:evenodd;stroke:none"
             d="m 0,0 0,-3.892 -0.513,0 0,3.407 -1.051,0 -0.947,-3.407 -0.555,0 L -1.957,0 0,0 Z" /></g><g
           transform="translate(59.0072,17.536)"
           id="g40"><path
             id="path42"
             style="fill:#000000;fill-opacity:1;fill-rule:evenodd;stroke:none"
             d="m 0,0 0,0 c 0,-0.275 0.072,-0.529 0.218,-0.763 0.145,-0.233 0.339,-0.417 0.581,-0.55 0.241,-0.134 0.499,-0.201 0.772,-0.201 0.266,0 0.514,0.069 0.746,0.207 0.232,0.138 0.417,0.322 0.556,0.554 0.138,0.231 0.207,0.481 0.207,0.746 0,0.28 -0.066,0.54 -0.2,0.779 C 2.747,1.011 2.563,1.199 2.33,1.337 2.097,1.475 1.839,1.544 1.558,1.544 1.277,1.544 1.018,1.475 0.779,1.338 0.541,1.201 0.352,1.014 0.211,0.776 0.07,0.539 0,0.28 0,0 m 3.585,-1.927 -0.505,0 0,0.733 C 2.982,-1.373 2.856,-1.523 2.7,-1.646 2.544,-1.77 2.367,-1.863 2.171,-1.925 1.975,-1.987 1.775,-2.019 1.571,-2.019 c -0.303,0 -0.604,0.068 -0.902,0.206 -0.299,0.137 -0.569,0.343 -0.812,0.619 -0.088,0.097 -0.174,0.261 -0.257,0.492 -0.084,0.231 -0.126,0.479 -0.126,0.746 0,0.236 0.047,0.473 0.139,0.71 0.094,0.237 0.183,0.394 0.267,0.47 0.512,0.55 1.071,0.825 1.678,0.825 0.32,0 0.619,-0.07 0.896,-0.213 C 2.731,1.695 2.939,1.49 3.08,1.224 l 0,0.74 0.505,0 0,-3.891 z" /></g><g
           transform="translate(65.014,19.5854)"
           id="g44"><path
             id="path46"
             style="fill:#000000;fill-opacity:1;fill-rule:evenodd;stroke:none"
             d="M 0,0 0.77,0 C 0.894,-0.238 1.107,-0.647 1.412,-1.23 1.716,-1.813 1.966,-2.292 2.161,-2.666 2.356,-3.04 2.453,-3.228 2.453,-3.23 L 4.14,0 l 0.766,0 0,-3.892 -0.525,0 0,3.315 -1.706,-3.315 -0.442,0 C 2.161,-3.753 2.053,-3.544 1.907,-3.263 1.763,-2.981 1.566,-2.601 1.319,-2.122 1.072,-1.643 0.806,-1.125 0.52,-0.57 l 0,-3.322 -0.52,0 L 0,0 Z" /></g><g
           transform="translate(72.1918,19.5854)"
           id="g48"><path
             id="path50"
             style="fill:#000000;fill-opacity:1;fill-rule:evenodd;stroke:none"
             d="m 0,0 0.525,0 0,-1.652 2.226,0 0,1.652 0.527,0 0,-3.892 -0.527,0 0,1.765 -2.226,0 0,-1.765 L 0,-3.892 0,0 Z" /></g><g
           transform="translate(81.0072,19.5854)"
           id="g52"><path
             id="path54"
             style="fill:#000000;fill-opacity:1;fill-rule:evenodd;stroke:none"
             d="m 0,0 0,0 0.519,0 0,-3.892 L 0,-3.892 0,0 Z m -2.483,-1.992 0,0 0,-1.415 0.413,0 c 0.047,0 0.097,-10e-4 0.153,-0.004 0.056,-0.003 0.1,-0.005 0.132,-0.005 0.193,0 0.349,0.027 0.469,0.079 0.28,0.117 0.42,0.331 0.42,0.64 0,0.114 -0.026,0.222 -0.079,0.324 -0.051,0.101 -0.123,0.179 -0.212,0.232 l 0,0.007 c -0.156,0.094 -0.395,0.142 -0.719,0.142 l -0.577,0 z m -0.519,-1.9 0,3.892 0.519,0 0,-1.516 0.634,0 c 0.209,0 0.397,-0.017 0.562,-0.051 0.165,-0.034 0.316,-0.102 0.455,-0.204 0.304,-0.219 0.455,-0.528 0.455,-0.926 0,-0.199 -0.046,-0.386 -0.138,-0.559 -0.09,-0.173 -0.22,-0.312 -0.387,-0.415 -0.146,-0.094 -0.294,-0.153 -0.447,-0.177 -0.152,-0.024 -0.349,-0.039 -0.592,-0.044 l -1.061,0 z" /></g><g
           transform="translate(87.2806,17.8422)"
           id="g56"><path
             id="path58"
             style="fill:#000000;fill-opacity:1;fill-rule:evenodd;stroke:none"
             d="M 0,0 0,0 C -0.046,0.229 -0.141,0.437 -0.285,0.625 -0.43,0.813 -0.607,0.963 -0.819,1.073 -1.03,1.183 -1.254,1.238 -1.488,1.238 -1.728,1.238 -1.956,1.185 -2.172,1.079 -2.388,0.973 -2.567,0.825 -2.714,0.636 -2.858,0.447 -2.953,0.235 -2.995,0 L 0,0 Z m -2.995,-0.476 c 0.01,-0.238 0.086,-0.461 0.227,-0.668 0.141,-0.206 0.324,-0.371 0.547,-0.493 0.223,-0.122 0.453,-0.183 0.691,-0.183 0.194,0 0.384,0.035 0.568,0.103 0.185,0.07 0.35,0.168 0.495,0.298 0.146,0.13 0.256,0.28 0.331,0.451 l 0.547,0 C 0.32,-1.226 0.179,-1.458 -0.014,-1.665 -0.208,-1.871 -0.433,-2.033 -0.689,-2.15 c -0.257,-0.117 -0.521,-0.175 -0.79,-0.175 -0.374,0 -0.716,0.09 -1.03,0.271 -0.312,0.18 -0.56,0.426 -0.741,0.737 -0.182,0.311 -0.271,0.652 -0.271,1.025 0,0.369 0.089,0.71 0.27,1.023 0.181,0.314 0.427,0.561 0.736,0.741 0.311,0.18 0.65,0.271 1.02,0.271 0.305,0 0.593,-0.067 0.864,-0.199 C -0.359,1.411 -0.125,1.226 0.07,0.987 0.237,0.78 0.353,0.562 0.417,0.332 0.481,0.103 0.518,-0.167 0.525,-0.476 l -3.52,0 z" /></g><g
           transform="translate(38.1224,7.8432)"
           id="g60"><path
             id="path62"
             style="fill:#000000;fill-opacity:1;fill-rule:evenodd;stroke:none"
             d="m 0,0 0,0 c 0.382,0 0.709,0.021 0.982,0.065 0.273,0.044 0.528,0.14 0.765,0.287 0.24,0.149 0.427,0.353 0.561,0.614 0.133,0.261 0.2,0.537 0.2,0.829 0,0.372 -0.094,0.7 -0.285,0.983 C 2.033,3.062 1.769,3.272 1.429,3.412 1.112,3.546 0.705,3.612 0.209,3.612 0.144,3.612 0.046,3.61 -0.086,3.606 -0.217,3.603 -0.313,3.602 -0.375,3.602 l -1.116,0 L -1.491,0 0,0 Z m -2.358,4.386 2.275,0 C 0.248,4.382 0.539,4.371 0.791,4.353 1.042,4.334 1.292,4.292 1.539,4.225 1.786,4.158 2.02,4.056 2.239,3.916 2.607,3.686 2.889,3.382 3.083,3.007 3.278,2.632 3.375,2.225 3.375,1.783 3.375,0.925 3.047,0.256 2.39,-0.224 2.085,-0.449 1.753,-0.598 1.396,-0.673 1.038,-0.747 0.62,-0.784 0.141,-0.784 l -1.632,0 0,-3.496 -0.867,0 0,8.666 z" /></g><g
           transform="translate(42.7059,12.2289)"
           id="g64"><path
             id="path66"
             style="fill:#000000;fill-opacity:1;fill-rule:evenodd;stroke:none"
             d="m 0,0 4.738,0 0,-0.784 -3.871,0 0,-3.12 3.742,0 0,-0.785 -3.742,0 0,-3.192 3.871,0 0,-0.785 L 0,-8.666 0,0 Z" /></g><g
           transform="translate(48.9896,3.5629)"
           id="g68"><path
             id="path70"
             style="fill:#000000;fill-opacity:1;fill-rule:evenodd;stroke:none"
             d="m 0,0 0,8.666 0.867,0 0,-7.881 3.215,0 0,7.881 0.867,0 0,-7.881 3.212,0 0,7.881 0.868,0 L 9.029,0 0,0 Z" /></g><g
           transform="translate(59.8021,12.2289)"
           id="g72"><path
             id="path74"
             style="fill:#000000;fill-opacity:1;fill-rule:evenodd;stroke:none"
             d="m 0,0 4.738,0 0,-0.784 -3.871,0 0,-3.12 3.741,0 0,-0.785 -3.741,0 0,-3.192 3.871,0 0,-0.785 L 0,-8.666 0,0 Z" /></g><g
           transform="translate(66.0863,12.2289)"
           id="g76"><path
             id="path78"
             style="fill:#000000;fill-opacity:1;fill-rule:evenodd;stroke:none"
             d="m 0,0 0.867,0 0,-3.811 4.491,0 0,3.811 0.868,0 0,-8.666 -0.868,0 0,4.071 -4.491,0 0,-4.071 L 0,-8.666 0,0 Z" /></g><g
           transform="translate(80.7572,12.2289)"
           id="g80"><path
             id="path82"
             style="fill:#000000;fill-opacity:1;fill-rule:evenodd;stroke:none"
             d="m 0,0 0,-8.666 -0.867,0 0,7.621 -4.915,-7.621 -0.879,0 0,8.666 0.867,0 0,-7.188 L -1.185,0 0,0 Z" /></g><g
           transform="translate(87.8744,12.2289)"
           id="g84"><path
             id="path86"
             style="fill:#000000;fill-opacity:1;fill-rule:evenodd;stroke:none"
             d="m 0,0 0,-8.666 -0.867,0 0,7.882 -1.372,0 c -0.458,0 -0.835,-0.024 -1.132,-0.07 -0.298,-0.045 -0.572,-0.16 -0.826,-0.342 -0.248,-0.17 -0.446,-0.397 -0.591,-0.679 -0.147,-0.282 -0.22,-0.573 -0.22,-0.87 0,-0.39 0.099,-0.738 0.297,-1.048 0.197,-0.31 0.474,-0.546 0.828,-0.71 0.25,-0.101 0.523,-0.166 0.817,-0.193 0.294,-0.028 0.651,-0.042 1.073,-0.042 l 0.258,0 -2.943,-3.928 -1.08,0 2.44,3.235 c -0.464,0.012 -0.892,0.136 -1.285,0.372 -0.391,0.237 -0.702,0.552 -0.93,0.947 -0.228,0.393 -0.342,0.822 -0.342,1.286 0,0.512 0.116,0.978 0.35,1.399 0.232,0.421 0.565,0.755 0.999,1.003 0.324,0.183 0.678,0.299 1.063,0.35 C -3.079,-0.025 -2.612,0 -2.064,0 L 0,0 Z" /></g></g></g></g></svg>