<svg xmlns="http://www.w3.org/2000/svg" style="display:none"><defs><style>.cls-1{fill:#b3b3b3;fill-rule:evenodd}</style><style>.cls-1{fill-rule:evenodd}</style><style>.cls-1{fill:#b3b3b3;fill-rule:evenodd}</style></defs><symbol id="icon-marker" viewBox="0 0 11 17"><path id="Forma_1" data-name="Forma 1" class="cls-1" d="M1010.74 3056.23a5.03 5.03 0 0 0-.26-.68 5.356 5.356 0 0 0-5.05-3.55 5.5 5.5 0 0 0-5.43 5.27v.73c0 .03.01.3.02.44.2 1.69 1.46 3.49 2.39 5.18 1.01 1.81 2.06 3.6 3.09 5.38.64-1.16 1.28-2.34 1.9-3.48.17-.33.37-.66.54-.98.11-.21.33-.42.43-.62 1.01-1.96 2.63-3.94 2.63-5.89v-.8a7.048 7.048 0 0 0-.26-1zm-5.27 3.64a1.948 1.948 0 0 1-1.87-1.42 1.925 1.925 0 0 1-.05-.53v-.47a1.9 1.9 0 0 1 1.98-1.93 2.077 2.077 0 0 1 2.01 2.18 2.117 2.117 0 0 1-2.07 2.17z" transform="translate(-1000 -3052)"/></symbol><symbol id="icon-pdf" viewBox="0 0 60 64"><path class="cls-1" d="M59.66 17.32L43.44.377A1.226 1.226 0 0 0 42.55 0H18.38a4.924 4.924 0 0 0-4.91 4.93v17.224h-9.8A3.686 3.686 0 0 0 0 25.843v18.468A3.686 3.686 0 0 0 3.67 48h9.8v11.078A4.92 4.92 0 0 0 18.38 64h36.71A4.919 4.919 0 0 0 60 59.081V18.173a1.229 1.229 0 0 0-.34-.853zm-16.8-14l13.31 13.908H42.86V3.323zM3.67 45.535a1.226 1.226 0 0 1-1.22-1.227V25.843a1.227 1.227 0 0 1 1.22-1.228h33.07a1.227 1.227 0 0 1 1.22 1.228v18.468a1.226 1.226 0 0 1-1.22 1.227H3.67zm53.88 13.543a2.459 2.459 0 0 1-2.46 2.457H18.38a2.46 2.46 0 0 1-2.46-2.46V48h20.82a3.686 3.686 0 0 0 3.67-3.689V25.843a3.686 3.686 0 0 0-3.67-3.689H15.92V4.93a2.465 2.465 0 0 1 2.46-2.469h22.03v16a1.228 1.228 0 0 0 1.22 1.231h15.92v39.389zM14.64 31.234a2.751 2.751 0 0 0-1.52-1.035 12.2 12.2 0 0 0-2.52-.159H7.19v10.572h2.13v-3.988h1.38a11.992 11.992 0 0 0 2.2-.151 3.015 3.015 0 0 0 1.1-.5 2.886 2.886 0 0 0 .9-1.042 3.52 3.52 0 0 0 .35-1.637 3.271 3.271 0 0 0-.61-2.057zm-1.82 2.91a1.4 1.4 0 0 1-.66.519 5.558 5.558 0 0 1-1.68.166H9.32v-3h1.02a10.126 10.126 0 0 1 1.53.072 1.453 1.453 0 0 1 .85.469 1.347 1.347 0 0 1 .34.951 1.431 1.431 0 0 1-.24.826zm12.64-1.216a4.638 4.638 0 0 0-1.01-1.712 3.479 3.479 0 0 0-1.58-.974 7.542 7.542 0 0 0-2-.2h-3.89v10.572h4a6.38 6.38 0 0 0 1.88-.223 3.636 3.636 0 0 0 1.49-.844 4.616 4.616 0 0 0 1.13-1.868 6.858 6.858 0 0 0 .32-2.25 7.843 7.843 0 0 0-.34-2.498zm-2.07 4.342a2.272 2.272 0 0 1-.55 1.02 2 2 0 0 1-.86.44 5.775 5.775 0 0 1-1.29.1h-1.58v-7h.95a9.6 9.6 0 0 1 1.75.1 2.042 2.042 0 0 1 .98.5 2.374 2.374 0 0 1 .6 1.024 6.117 6.117 0 0 1 .22 1.883 6.671 6.671 0 0 1-.22 1.936zm11.44-5.441V30.04h-7.21v10.572h2.12V36.12h4.39v-1.789h-4.39v-2.5h5.09z"/></symbol><symbol id="icon-phone" viewBox="0 0 14.06 15.81"><path id="Forma_1" data-name="Forma 1" class="cls-1" d="M1387.82 3066.55a.735.735 0 0 1-.29.61l-2.32 1.87a1.108 1.108 0 0 1-.4.23 1.588 1.588 0 0 1-.46.1h-.1c-.05-.01-.12-.01-.2-.02a8.345 8.345 0 0 1-.97-.2 7.515 7.515 0 0 1-1.59-.68 13.126 13.126 0 0 1-2.07-1.44 15.877 15.877 0 0 1-2.39-2.48 17.837 17.837 0 0 1-1.62-2.28 16.224 16.224 0 0 1-.98-1.96 10.938 10.938 0 0 1-.5-1.6 8.574 8.574 0 0 1-.18-1.22 3.8 3.8 0 0 1 .02-.79c.03-.19.05-.29.05-.31a1.675 1.675 0 0 1 .19-.44 1.137 1.137 0 0 1 .31-.34l2.31-1.89a.766.766 0 0 1 .53-.17.6.6 0 0 1 .35.16 1.076 1.076 0 0 1 .24.32l1.36 3.39a.768.768 0 0 1 .02.56.968.968 0 0 1-.32.47l-.86.7a.289.289 0 0 0-.06.1.76.76 0 0 0-.04.11 2.826 2.826 0 0 0 .21.79 6.827 6.827 0 0 0 .49.99 9.792 9.792 0 0 0 .99 1.37 10.819 10.819 0 0 0 1.14 1.26 7.137 7.137 0 0 0 .86.69 2.721 2.721 0 0 0 .55.29l.19.06a.892.892 0 0 0 .11-.02.282.282 0 0 0 .11-.04l.99-.82a1.011 1.011 0 0 1 .69-.19.9.9 0 0 1 .42.14h.01l2.86 2.12a.807.807 0 0 1 .35.56z" transform="translate(-1373.75 -3053.53)"/></symbol><symbol id="temp-icon-left-arrow" viewBox="0 0 31.494 31.494"><path d="M10.273 5.01a1.117 1.117 0 0 1 1.587 1.57l-8.047 8.047h26.554c.62 0 1.127.492 1.127 1.11 0 .62-.508 1.128-1.127 1.128H3.813l8.047 8.032c.43.444.43 1.16 0 1.587a1.112 1.112 0 0 1-1.587 0L.32 16.532a1.12 1.12 0 0 1 0-1.57l9.953-9.953z" fill="#1E201D"/></symbol><symbol id="temp-icon-right-arrow" viewBox="0 0 31.49 31.49"><path d="M21.205 5.007a1.117 1.117 0 0 0-1.587 1.57l8.047 8.048H1.11c-.618 0-1.11.493-1.11 1.112 0 .62.492 1.127 1.11 1.127h26.555l-8.047 8.032c-.43.444-.43 1.16 0 1.587.444.444 1.16.444 1.587 0l9.952-9.952a1.092 1.092 0 0 0 0-1.57l-9.952-9.95z" fill="#1E201D"/></symbol></svg>